<svg version="1.1" id="Layer_1" xmlns="http://www.w3.org/2000/svg" xmlns:xlink="http://www.w3.org/1999/xlink" x="0px" y="0px"
	 width="100%" viewBox="0 0 204 196" enable-background="new 0 0 204 196" xml:space="preserve">
<path fill="#010100" opacity="1.000000" stroke="none" 
	d="
M120.000000,197.000000 
	C80.024696,197.000000 40.549400,197.000000 1.037050,197.000000 
	C1.037050,131.732239 1.037050,66.464447 1.037050,1.098330 
	C68.891800,1.098330 136.783798,1.098330 204.837891,1.098330 
	C204.837891,66.333008 204.837891,131.666473 204.837891,197.000000 
	C176.798065,197.000000 148.649033,197.000000 120.000000,197.000000 
M65.876923,23.603878 
	C64.176003,23.930489 62.473751,24.536341 60.774437,24.528217 
	C56.661747,24.508556 52.550434,24.202646 48.520973,24.015934 
	C47.235577,28.567917 46.407124,32.687428 44.846184,36.507645 
	C44.113243,38.301430 42.220505,40.141556 40.413712,40.869583 
	C36.478432,42.455257 32.261238,43.341282 28.495338,44.417217 
	C28.495338,48.924797 28.209921,52.931957 28.586483,56.875912 
	C28.882792,59.979351 27.908720,61.785614 25.284132,63.331848 
	C21.731846,65.424629 18.411058,67.910362 14.887159,70.297844 
	C16.342228,74.304314 17.520741,78.107025 19.103971,81.733025 
	C20.381416,84.658691 20.114717,86.813110 18.017136,89.399734 
	C10.297894,98.918701 10.309128,99.083298 17.961235,108.540504 
	C20.019402,111.084183 20.453705,113.203720 19.120583,116.191101 
	C17.455048,119.923401 16.289558,123.878838 14.900654,127.759003 
	C17.464342,129.487976 19.529818,131.255737 21.896435,132.401428 
	C27.349348,135.041214 29.785360,138.826645 28.360809,145.059326 
	C27.752745,147.719742 28.259193,150.634903 28.259193,153.449066 
	C29.566078,153.873825 30.642904,154.476730 31.752604,154.544983 
	C41.791565,155.162247 46.587585,160.868195 47.544540,170.478226 
	C47.653641,171.573883 48.216793,172.624329 48.685600,174.048767 
	C53.093925,173.812363 57.403084,173.302612 61.682690,173.485275 
	C63.461063,173.561203 65.700661,174.693268 66.817017,176.080307 
	C69.601120,179.539520 71.861443,183.420273 74.392578,187.222824 
	C78.299232,185.775528 81.976921,184.684311 85.405563,183.065567 
	C88.744125,181.489349 91.133209,182.223175 93.899979,184.471909 
	C102.894669,191.782471 103.042709,191.756866 112.316177,184.320526 
	C114.916809,182.235092 117.171303,181.471130 120.373260,182.983383 
	C123.929039,184.662735 127.750916,185.778641 131.665421,187.216431 
	C134.304306,183.203918 136.569519,179.318268 139.318161,175.811523 
	C140.326050,174.525650 142.460159,173.509964 144.113113,173.460495 
	C148.550186,173.327713 153.004868,173.783340 157.446152,174.004959 
	C158.726761,169.510193 159.572205,165.408295 161.123795,161.593613 
	C161.858231,159.787964 163.680939,157.884903 165.470291,157.158813 
	C169.409348,155.560394 173.640533,154.681885 177.468094,153.590622 
	C177.468094,149.015579 177.181305,144.845901 177.592636,140.746277 
	C177.789581,138.783585 178.852737,136.411713 180.322556,135.173965 
	C183.594910,132.418274 187.370209,130.259796 191.098770,127.751488 
	C189.675629,123.790810 188.570023,119.959801 186.929291,116.373611 
	C185.478241,113.201988 186.072800,110.937248 188.221329,108.298462 
	C195.709808,99.101212 195.701675,98.957649 188.109436,89.548813 
	C186.100235,87.058853 185.434677,84.975365 186.828918,81.923210 
	C188.529678,78.200104 189.664551,74.218475 191.078995,70.250961 
	C187.364395,67.743149 184.023605,65.258629 180.456787,63.157909 
	C177.962250,61.688736 177.160309,59.952740 177.396591,57.068527 
	C177.732925,52.963116 177.482071,48.809601 177.482071,43.918983 
	C164.897766,43.840271 158.148621,37.099464 158.065735,23.927675 
	C153.342377,24.167164 149.356705,24.159340 145.429428,24.634378 
	C142.251846,25.018734 140.158264,24.343838 138.526901,21.332018 
	C136.565933,17.711708 134.021683,14.407348 131.687790,10.902854 
	C130.792099,11.160781 130.111191,11.223786 129.570465,11.532428 
	C120.738640,16.573606 112.644997,16.903643 105.467575,8.385712 
	C104.746010,7.529385 101.253754,7.526831 100.530144,8.382306 
	C93.341858,16.880455 85.247360,16.582798 76.408890,11.523156 
	C75.868996,11.214090 75.184036,11.158439 74.308044,10.912210 
	C71.597816,14.972238 68.933594,18.963341 65.876923,23.603878 
z"/>
<path fill="#FCA526" opacity="1.000000" stroke="none" 
	d="
M66.073151,23.279161 
	C68.933594,18.963341 71.597816,14.972238 74.308044,10.912210 
	C75.184036,11.158439 75.868996,11.214090 76.408890,11.523156 
	C85.247360,16.582798 93.341858,16.880455 100.530144,8.382306 
	C101.253754,7.526831 104.746010,7.529385 105.467575,8.385712 
	C112.644997,16.903643 120.738640,16.573606 129.570465,11.532428 
	C130.111191,11.223786 130.792099,11.160781 131.687790,10.902854 
	C134.021683,14.407348 136.565933,17.711708 138.526901,21.332018 
	C140.158264,24.343838 142.251846,25.018734 145.429428,24.634378 
	C149.356705,24.159340 153.342377,24.167164 158.065735,23.927675 
	C158.148621,37.099464 164.897766,43.840271 177.482071,43.918983 
	C177.482071,48.809601 177.732925,52.963116 177.396591,57.068527 
	C177.160309,59.952740 177.962250,61.688736 180.456787,63.157909 
	C184.023605,65.258629 187.364395,67.743149 191.078995,70.250961 
	C189.664551,74.218475 188.529678,78.200104 186.828918,81.923210 
	C185.434677,84.975365 186.100235,87.058853 188.109436,89.548813 
	C195.701675,98.957649 195.709808,99.101212 188.221329,108.298462 
	C186.072800,110.937248 185.478241,113.201988 186.929291,116.373611 
	C188.570023,119.959801 189.675629,123.790810 191.098770,127.751488 
	C187.370209,130.259796 183.594910,132.418274 180.322556,135.173965 
	C178.852737,136.411713 177.789581,138.783585 177.592636,140.746277 
	C177.181305,144.845901 177.468094,149.015579 177.468094,153.590622 
	C173.640533,154.681885 169.409348,155.560394 165.470291,157.158813 
	C163.680939,157.884903 161.858231,159.787964 161.123795,161.593613 
	C159.572205,165.408295 158.726761,169.510193 157.446152,174.004959 
	C153.004868,173.783340 148.550186,173.327713 144.113113,173.460495 
	C142.460159,173.509964 140.326050,174.525650 139.318161,175.811523 
	C136.569519,179.318268 134.304306,183.203918 131.665421,187.216431 
	C127.750916,185.778641 123.929039,184.662735 120.373260,182.983383 
	C117.171303,181.471130 114.916809,182.235092 112.316177,184.320526 
	C103.042709,191.756866 102.894669,191.782471 93.899979,184.471909 
	C91.133209,182.223175 88.744125,181.489349 85.405563,183.065567 
	C81.976921,184.684311 78.299232,185.775528 74.392578,187.222824 
	C71.861443,183.420273 69.601120,179.539520 66.817017,176.080307 
	C65.700661,174.693268 63.461063,173.561203 61.682690,173.485275 
	C57.403084,173.302612 53.093925,173.812363 48.685600,174.048767 
	C48.216793,172.624329 47.653641,171.573883 47.544540,170.478226 
	C46.587585,160.868195 41.791565,155.162247 31.752604,154.544983 
	C30.642904,154.476730 29.566078,153.873825 28.259193,153.449066 
	C28.259193,150.634903 27.752745,147.719742 28.360809,145.059326 
	C29.785360,138.826645 27.349348,135.041214 21.896435,132.401428 
	C19.529818,131.255737 17.464342,129.487976 14.900654,127.759003 
	C16.289558,123.878838 17.455048,119.923401 19.120583,116.191101 
	C20.453705,113.203720 20.019402,111.084183 17.961235,108.540504 
	C10.309128,99.083298 10.297894,98.918701 18.017136,89.399734 
	C20.114717,86.813110 20.381416,84.658691 19.103971,81.733025 
	C17.520741,78.107025 16.342228,74.304314 14.887159,70.297844 
	C18.411058,67.910362 21.731846,65.424629 25.284132,63.331848 
	C27.908720,61.785614 28.882792,59.979351 28.586483,56.875912 
	C28.209921,52.931957 28.495338,48.924797 28.495338,44.417217 
	C32.261238,43.341282 36.478432,42.455257 40.413712,40.869583 
	C42.220505,40.141556 44.113243,38.301430 44.846184,36.507645 
	C46.407124,32.687428 47.235577,28.567917 48.520973,24.015934 
	C52.550434,24.202646 56.661747,24.508556 60.774437,24.528217 
	C62.473751,24.536341 64.176003,23.930489 66.073151,23.279161 
M112.759766,78.263168 
	C101.082497,89.842560 89.405235,101.421951 78.065788,112.666359 
	C83.828804,118.642136 89.126297,124.135193 94.807770,130.026413 
	C109.313957,115.392952 123.699348,100.825676 138.181992,86.355736 
	C139.668945,84.870087 141.737381,83.966423 143.660599,82.711395 
	C144.984924,76.002876 151.663818,73.319206 155.851044,68.158279 
	C153.773270,61.062008 149.086182,55.420082 142.977921,50.885834 
	C141.793900,50.006924 140.098587,49.816833 138.639114,49.309002 
	C138.513336,50.782127 138.387558,52.255249 138.291458,53.380630 
	C134.775940,56.587105 131.367035,59.696346 127.829712,62.922703 
	C127.084663,62.247292 126.478073,61.719166 125.895447,61.165806 
	C121.045815,56.559738 121.065018,56.576153 116.484833,61.164833 
	C108.722382,68.941673 100.856033,76.617668 93.240425,84.535225 
	C92.059174,85.763313 91.976814,88.048401 91.386284,89.844681 
	C93.059616,89.210930 95.152374,89.013397 96.338470,87.872925 
	C104.257278,80.258743 111.978668,72.439346 119.780975,64.703560 
	C120.232025,64.256363 120.830269,63.957615 121.525162,63.475105 
	C122.460045,64.528526 123.298126,65.472878 124.440269,66.759834 
	C120.594261,70.544922 116.928978,74.152153 112.759766,78.263168 
M84.940033,138.451813 
	C86.955254,136.858887 88.970474,135.265945 91.057175,133.616516 
	C85.211365,127.870102 79.781158,122.532227 73.338699,116.199303 
	C69.005165,123.814003 64.726028,131.333130 60.752129,138.315918 
	C58.846436,138.595276 57.249439,138.829376 54.605415,139.216980 
	C61.426376,147.659393 69.269264,151.167694 79.050369,152.481522 
	C78.852036,145.938354 72.178627,149.712326 70.682587,145.897888 
	C75.215607,143.548828 79.757095,141.195389 84.940033,138.451813 
M48.970268,75.733810 
	C48.970268,80.152519 48.970268,84.571236 48.970268,89.057739 
	C52.564655,88.546638 52.600830,88.547768 53.120354,71.914032 
	C53.155430,70.790993 52.038406,69.631958 51.457211,68.489670 
	C50.934414,68.673470 50.411617,68.857262 49.888821,69.041054 
	C49.582867,70.962349 49.276917,72.883644 48.970268,75.733810 
M152.778839,125.900551 
	C152.579926,128.353195 149.281326,131.589249 155.095093,132.847824 
	C155.863205,129.097412 156.621094,125.396820 157.368713,121.746353 
	C152.933075,120.235352 152.975800,122.739685 152.778839,125.900551 
M48.956116,100.470802 
	C48.956116,101.925423 48.956116,103.380051 48.956116,106.020401 
	C54.838581,103.904343 52.237534,99.512993 52.680344,96.597321 
	C52.849182,95.485596 51.330677,94.117622 50.581161,92.866425 
	C50.039471,93.132797 49.497780,93.399170 48.956089,93.665535 
	C48.956089,95.621170 48.956089,97.576797 48.956116,100.470802 
M50.840710,131.640717 
	C51.871159,133.830750 51.975876,137.824341 56.549248,134.021423 
	C53.007759,131.976334 55.983074,125.134117 48.966393,124.959999 
	C49.627865,127.451141 50.089417,129.189377 50.840710,131.640717 
M52.704491,120.109077 
	C53.129559,109.573151 53.129559,109.573151 48.963520,109.619209 
	C48.963520,112.719986 48.756920,115.853912 49.110649,118.923271 
	C49.197685,119.678490 51.111187,120.223213 52.704491,120.109077 
M153.158783,110.625580 
	C153.920319,112.907608 151.135651,117.184128 156.830490,117.205894 
	C156.830490,113.062126 156.830490,109.322098 156.830490,105.500595 
	C152.256348,104.274277 153.374222,107.552483 153.158783,110.625580 
M153.341599,90.143356 
	C152.728470,100.697220 152.728470,100.697220 157.034042,100.829575 
	C157.034042,97.707893 157.246567,94.568893 156.888657,91.496353 
	C156.796066,90.701447 154.915237,90.114830 153.341599,90.143356 
M157.030731,83.250618 
	C157.030731,79.969574 157.030731,76.688530 157.030731,73.407494 
	C156.578140,73.151062 156.125549,72.894630 155.672943,72.638199 
	C154.823212,73.704628 153.195282,74.827728 153.268036,75.826981 
	C153.496414,78.963120 154.364990,82.052635 154.985626,85.160210 
	C155.645584,84.834900 156.305542,84.509590 157.030731,83.250618 
M146.041138,139.407516 
	C144.455856,141.178391 141.276489,142.864273 146.199844,145.305756 
	C148.505478,142.466202 150.820526,139.615082 153.104141,136.802643 
	C148.673447,132.722565 148.275513,137.371201 146.041138,139.407516 
M133.908813,147.280182 
	C131.561890,147.999893 129.342514,148.785156 131.733749,152.263763 
	C135.164139,150.912689 138.598419,149.560074 142.043701,148.203140 
	C139.696243,142.222900 137.010849,146.985519 133.908813,147.280182 
M66.725388,52.999027 
	C72.121986,50.189522 72.121986,50.189522 70.916206,46.636360 
	C67.557922,48.409435 64.280861,50.139622 61.003811,51.869812 
	C61.154701,52.540318 61.305592,53.210819 61.456482,53.881325 
	C63.006165,53.715206 64.555847,53.549084 66.725388,52.999027 
M125.055573,45.886330 
	C122.210510,46.991840 122.502281,48.357632 125.086624,49.102348 
	C127.443718,49.781582 129.992599,49.990902 132.458130,49.997875 
	C133.389587,50.000511 134.324295,48.855705 135.257523,48.233952 
	C135.157928,47.733025 135.058334,47.232101 134.958755,46.731178 
	C131.944733,46.446571 128.930725,46.161961 125.055573,45.886330 
M60.233589,57.652103 
	C59.388790,55.583054 58.228146,54.438927 56.486652,56.795437 
	C54.700745,59.212044 53.107651,61.771137 51.430168,64.267868 
	C51.849598,64.786469 52.269028,65.305061 52.688457,65.823662 
	C53.817051,65.202477 55.213112,64.817780 56.016537,63.909088 
	C57.520412,62.208191 58.680798,60.203590 60.233589,57.652103 
M109.043770,45.905613 
	C106.317749,47.092583 106.259857,48.506233 109.185570,49.051895 
	C111.757736,49.531612 114.495361,49.266006 117.144928,49.096039 
	C117.869492,49.049564 118.540123,48.162285 119.235497,47.660858 
	C118.466774,47.069504 117.741562,46.051823 116.921051,45.968090 
	C114.616524,45.732914 112.272736,45.882618 109.043770,45.905613 
M103.093834,46.566727 
	C99.840088,46.343800 96.588364,46.055420 93.330841,45.954330 
	C92.695236,45.934605 91.860718,46.513779 91.459221,47.065205 
	C91.238510,47.368320 91.774574,48.711662 91.892838,48.701420 
	C95.676727,48.373787 99.451233,47.937790 103.093834,46.566727 
M83.819374,152.082977 
	C86.794098,152.125885 89.775978,152.294495 92.738655,152.125748 
	C93.506386,152.082016 94.213959,150.982071 94.949165,150.367264 
	C94.272949,149.862839 93.622246,148.969650 92.915970,148.923309 
	C90.280937,148.750412 87.606918,148.674515 84.994949,148.974792 
	C84.285614,149.056320 83.742928,150.587555 83.819374,152.082977 
M109.235672,148.859650 
	C106.422112,148.859955 103.605095,148.787064 100.797752,148.919479 
	C100.203903,148.947479 99.434296,149.619980 99.144142,150.196182 
	C98.947044,150.587570 99.431656,151.833557 99.634361,151.838989 
	C103.221642,151.934875 106.812462,151.898819 110.402512,151.891251 
	C110.324547,150.916016 110.246590,149.940781 109.235672,148.859650 
M125.240929,152.202438 
	C125.810432,151.593094 126.379936,150.983749 126.949432,150.374405 
	C126.274017,149.867767 125.624413,148.970764 124.918587,148.924088 
	C122.288177,148.750183 119.632057,148.749207 117.002342,148.928635 
	C116.323181,148.974960 115.705093,149.916306 115.058945,150.446518 
	C115.662140,151.031021 116.227623,152.065826 116.875229,152.120056 
	C119.335419,152.326096 121.822151,152.215088 125.240929,152.202438 
M81.472878,49.173737 
	C82.293716,49.171997 83.190926,49.382034 83.917839,49.119862 
	C85.064606,48.706257 86.096992,47.975521 87.177795,47.379025 
	C86.164536,46.882336 85.177238,46.034412 84.132965,45.957199 
	C81.396835,45.754906 78.635834,45.888958 75.884750,45.888958 
	C75.759560,46.575291 75.634369,47.261627 75.509178,47.947960 
	C77.173935,48.359543 78.838692,48.771126 81.472878,49.173737 
z"/>
<path fill="#040201" opacity="1.000000" stroke="none" 
	d="
M113.011734,78.011276 
	C116.928978,74.152153 120.594261,70.544922 124.440269,66.759834 
	C123.298126,65.472878 122.460045,64.528526 121.525162,63.475105 
	C120.830269,63.957615 120.232025,64.256363 119.780975,64.703560 
	C111.978668,72.439346 104.257278,80.258743 96.338470,87.872925 
	C95.152374,89.013397 93.059616,89.210930 91.386284,89.844681 
	C91.976814,88.048401 92.059174,85.763313 93.240425,84.535225 
	C100.856033,76.617668 108.722382,68.941673 116.484833,61.164833 
	C121.065018,56.576153 121.045815,56.559738 125.895447,61.165806 
	C126.478073,61.719166 127.084663,62.247292 127.829712,62.922703 
	C131.367035,59.696346 134.775940,56.587105 138.291458,53.380630 
	C138.387558,52.255249 138.513336,50.782127 138.639114,49.309002 
	C140.098587,49.816833 141.793900,50.006924 142.977921,50.885834 
	C149.086182,55.420082 153.773270,61.062008 155.851044,68.158279 
	C151.663818,73.319206 144.984924,76.002876 143.660599,82.711395 
	C141.737381,83.966423 139.668945,84.870087 138.181992,86.355736 
	C123.699348,100.825676 109.313957,115.392952 94.807770,130.026413 
	C89.126297,124.135193 83.828804,118.642136 78.065788,112.666359 
	C89.405235,101.421951 101.082497,89.842560 113.011734,78.011276 
z"/>
<path fill="#040301" opacity="1.000000" stroke="none" 
	d="
M84.619308,138.646881 
	C79.757095,141.195389 75.215607,143.548828 70.682587,145.897888 
	C72.178627,149.712326 78.852036,145.938354 79.050369,152.481522 
	C69.269264,151.167694 61.426376,147.659393 54.605415,139.216980 
	C57.249439,138.829376 58.846436,138.595276 60.752129,138.315918 
	C64.726028,131.333130 69.005165,123.814003 73.338699,116.199303 
	C79.781158,122.532227 85.211365,127.870102 91.057175,133.616516 
	C88.970474,135.265945 86.955254,136.858887 84.619308,138.646881 
z"/>
<path fill="#120C03" opacity="1.000000" stroke="none" 
	d="
M48.970615,75.269379 
	C49.276917,72.883644 49.582867,70.962349 49.888821,69.041054 
	C50.411617,68.857262 50.934414,68.673470 51.457211,68.489670 
	C52.038406,69.631958 53.155430,70.790993 53.120354,71.914032 
	C52.600830,88.547768 52.564655,88.546638 48.970268,89.057739 
	C48.970268,84.571236 48.970268,80.152519 48.970615,75.269379 
z"/>
<path fill="#160F03" opacity="1.000000" stroke="none" 
	d="
M152.833069,125.504532 
	C152.975800,122.739685 152.933075,120.235352 157.368713,121.746353 
	C156.621094,125.396820 155.863205,129.097412 155.095093,132.847824 
	C149.281326,131.589249 152.579926,128.353195 152.833069,125.504532 
z"/>
<path fill="#191004" opacity="1.000000" stroke="none" 
	d="
M48.956100,100.001617 
	C48.956089,97.576797 48.956089,95.621170 48.956089,93.665535 
	C49.497780,93.399170 50.039471,93.132797 50.581161,92.866425 
	C51.330677,94.117622 52.849182,95.485596 52.680344,96.597321 
	C52.237534,99.512993 54.838581,103.904343 48.956116,106.020401 
	C48.956116,103.380051 48.956116,101.925423 48.956100,100.001617 
z"/>
<path fill="#0E0902" opacity="1.000000" stroke="none" 
	d="
M50.695839,131.284164 
	C50.089417,129.189377 49.627865,127.451141 48.966393,124.959999 
	C55.983074,125.134117 53.007759,131.976334 56.549248,134.021423 
	C51.975876,137.824341 51.871159,133.830750 50.695839,131.284164 
z"/>
<path fill="#191004" opacity="1.000000" stroke="none" 
	d="
M52.444756,120.486893 
	C51.111187,120.223213 49.197685,119.678490 49.110649,118.923271 
	C48.756920,115.853912 48.963520,112.719986 48.963520,109.619209 
	C53.129559,109.573151 53.129559,109.573151 52.444756,120.486893 
z"/>
<path fill="#181003" opacity="1.000000" stroke="none" 
	d="
M153.158844,110.170181 
	C153.374222,107.552483 152.256348,104.274277 156.830490,105.500595 
	C156.830490,109.322098 156.830490,113.062126 156.830490,117.205894 
	C151.135651,117.184128 153.920319,112.907608 153.158844,110.170181 
z"/>
<path fill="#181003" opacity="1.000000" stroke="none" 
	d="
M153.598724,89.787949 
	C154.915237,90.114830 156.796066,90.701447 156.888657,91.496353 
	C157.246567,94.568893 157.034042,97.707893 157.034042,100.829575 
	C152.728470,100.697220 152.728470,100.697220 153.598724,89.787949 
z"/>
<path fill="#170F03" opacity="1.000000" stroke="none" 
	d="
M156.998108,83.717453 
	C156.305542,84.509590 155.645584,84.834900 154.985626,85.160210 
	C154.364990,82.052635 153.496414,78.963120 153.268036,75.826981 
	C153.195282,74.827728 154.823212,73.704628 155.672943,72.638199 
	C156.125549,72.894630 156.578140,73.151062 157.030731,73.407494 
	C157.030731,76.688530 157.030731,79.969574 156.998108,83.717453 
z"/>
<path fill="#100A02" opacity="1.000000" stroke="none" 
	d="
M146.295242,139.157471 
	C148.275513,137.371201 148.673447,132.722565 153.104141,136.802643 
	C150.820526,139.615082 148.505478,142.466202 146.199844,145.305756 
	C141.276489,142.864273 144.455856,141.178391 146.295242,139.157471 
z"/>
<path fill="#0D0802" opacity="1.000000" stroke="none" 
	d="
M134.263947,147.170532 
	C137.010849,146.985519 139.696243,142.222900 142.043701,148.203140 
	C138.598419,149.560074 135.164139,150.912689 131.733749,152.263763 
	C129.342514,148.785156 131.561890,147.999893 134.263947,147.170532 
z"/>
<path fill="#0F0A02" opacity="1.000000" stroke="none" 
	d="
M66.415459,53.190994 
	C64.555847,53.549084 63.006165,53.715206 61.456482,53.881325 
	C61.305592,53.210819 61.154701,52.540318 61.003811,51.869812 
	C64.280861,50.139622 67.557922,48.409435 70.916206,46.636360 
	C72.121986,50.189522 72.121986,50.189522 66.415459,53.190994 
z"/>
<path fill="#120C03" opacity="1.000000" stroke="none" 
	d="
M125.486145,45.881844 
	C128.930725,46.161961 131.944733,46.446571 134.958755,46.731178 
	C135.058334,47.232101 135.157928,47.733025 135.257523,48.233952 
	C134.324295,48.855705 133.389587,50.000511 132.458130,49.997875 
	C129.992599,49.990902 127.443718,49.781582 125.086624,49.102348 
	C122.502281,48.357632 122.210510,46.991840 125.486145,45.881844 
z"/>
<path fill="#0D0902" opacity="1.000000" stroke="none" 
	d="
M60.108833,57.988720 
	C58.680798,60.203590 57.520412,62.208191 56.016537,63.909088 
	C55.213112,64.817780 53.817051,65.202477 52.688457,65.823662 
	C52.269028,65.305061 51.849598,64.786469 51.430168,64.267868 
	C53.107651,61.771137 54.700745,59.212044 56.486652,56.795437 
	C58.228146,54.438927 59.388790,55.583054 60.108833,57.988720 
z"/>
<path fill="#080501" opacity="1.000000" stroke="none" 
	d="
M109.494095,45.893070 
	C112.272736,45.882618 114.616524,45.732914 116.921051,45.968090 
	C117.741562,46.051823 118.466774,47.069504 119.235497,47.660858 
	C118.540123,48.162285 117.869492,49.049564 117.144928,49.096039 
	C114.495361,49.266006 111.757736,49.531612 109.185570,49.051895 
	C106.259857,48.506233 106.317749,47.092583 109.494095,45.893070 
z"/>
<path fill="#080501" opacity="1.000000" stroke="none" 
	d="
M103.160492,47.042419 
	C99.451233,47.937790 95.676727,48.373787 91.892838,48.701420 
	C91.774574,48.711662 91.238510,47.368320 91.459221,47.065205 
	C91.860718,46.513779 92.695236,45.934605 93.330841,45.954330 
	C96.588364,46.055420 99.840088,46.343800 103.160492,47.042419 
z"/>
<path fill="#000000" opacity="1.000000" stroke="none" 
	d="
M83.471565,151.768219 
	C83.742928,150.587555 84.285614,149.056320 84.994949,148.974792 
	C87.606918,148.674515 90.280937,148.750412 92.915970,148.923309 
	C93.622246,148.969650 94.272949,149.862839 94.949165,150.367264 
	C94.213959,150.982071 93.506386,152.082016 92.738655,152.125748 
	C89.775978,152.294495 86.794098,152.125885 83.471565,151.768219 
z"/>
<path fill="#000000" opacity="1.000000" stroke="none" 
	d="
M109.702148,148.912598 
	C110.246590,149.940781 110.324547,150.916016 110.402512,151.891251 
	C106.812462,151.898819 103.221642,151.934875 99.634361,151.838989 
	C99.431656,151.833557 98.947044,150.587570 99.144142,150.196182 
	C99.434296,149.619980 100.203903,148.947479 100.797752,148.919479 
	C103.605095,148.787064 106.422112,148.859955 109.702148,148.912598 
z"/>
<path fill="#010000" opacity="1.000000" stroke="none" 
	d="
M124.769943,152.212524 
	C121.822151,152.215088 119.335419,152.326096 116.875229,152.120056 
	C116.227623,152.065826 115.662140,151.031021 115.058945,150.446533 
	C115.705093,149.916306 116.323181,148.974960 117.002342,148.928635 
	C119.632057,148.749207 122.288177,148.750183 124.918587,148.924088 
	C125.624413,148.970764 126.274017,149.867767 126.949432,150.374420 
	C126.379936,150.983749 125.810432,151.593094 124.769943,152.212524 
z"/>
<path fill="#040201" opacity="1.000000" stroke="none" 
	d="
M80.988159,49.178223 
	C78.838692,48.771126 77.173935,48.359543 75.509178,47.947960 
	C75.634369,47.261627 75.759560,46.575291 75.884750,45.888958 
	C78.635834,45.888958 81.396835,45.754906 84.132965,45.957199 
	C85.177238,46.034412 86.164536,46.882336 87.177795,47.379021 
	C86.096992,47.975521 85.064606,48.706257 83.917839,49.119862 
	C83.190926,49.382034 82.293716,49.171997 80.988159,49.178223 
z"/>
</svg>